HIERARCHY
ROOT Hips
{
    OFFSET 0.000000 0.000000 0.000000
    CHANNELS 6 Xposition Yposition Zposition Zrotation Xrotation Yrotation
    JOINT Spine
    {
        OFFSET -0.000000 8.505030 0.000000
        CHANNELS 3 Zrotation Xrotation Yrotation
        JOINT Spine1
        {
            OFFSET -0.000000 25.070629 0.000000
            CHANNELS 3 Zrotation Xrotation Yrotation
            JOINT Neck
            {
                OFFSET -0.000000 24.967667 2.269788
                CHANNELS 3 Zrotation Xrotation Yrotation
                JOINT Head
                {
                    OFFSET -0.000000 14.520781 -2.074397
                    CHANNELS 3 Zrotation Xrotation Yrotation
                    End Site
                    {
                        OFFSET -0.000000 25.929966 0.000000
                    }
                }
            }
            JOINT LeftShoulder
            {
                OFFSET 4.117346 22.983784 -0.389865
                CHANNELS 3 Zrotation Xrotation Yrotation
                JOINT LeftArm
                {
                    OFFSET 11.957758 0.000000 0.000000
                    CHANNELS 3 Zrotation Xrotation Yrotation
                    JOINT LeftForeArm
                    {
                        OFFSET 31.907600 0.000000 0.000000
                        CHANNELS 3 Zrotation Xrotation Yrotation
                        JOINT LeftHand
                        {
                            OFFSET 28.601147 0.000000 0.000000
                            CHANNELS 3 Zrotation Xrotation Yrotation
                            End Site
                            {
                                OFFSET 15.557981 0.000000 0.000000
                            }
                        }
                    }
                }
            }
            JOINT RightShoulder
            {
                OFFSET -4.061940 22.983784 -0.389865
                CHANNELS 3 Zrotation Xrotation Yrotation
                JOINT RightArm
                {
                    OFFSET -11.957758 0.000000 0.000000
                    CHANNELS 3 Zrotation Xrotation Yrotation
                    JOINT RightForeArm
                    {
                        OFFSET -31.907600 0.000000 0.000000
                        CHANNELS 3 Zrotation Xrotation Yrotation
                        JOINT RightHand
                        {
                            OFFSET -28.601147 0.000000 0.000000
                            CHANNELS 3 Zrotation Xrotation Yrotation
                            End Site
                            {
                                OFFSET -15.557981 0.000000 0.000000
                            }
                        }
                    }
                }
            }
        }
    }
    JOINT LeftUpLeg
    {
        OFFSET 10.371986 0.000000 0.000000
        CHANNELS 3 Zrotation Xrotation Yrotation
        JOINT LeftLeg
        {
            OFFSET -0.000000 -42.486427 0.000000
            CHANNELS 3 Zrotation Xrotation Yrotation
            JOINT LeftFoot
            {
                OFFSET -0.000000 -48.322342 0.000000
                CHANNELS 3 Zrotation Xrotation Yrotation
                JOINT LeftToeBase
                {
                    OFFSET -0.000000 -6.741791 15.557981
                    CHANNELS 3 Zrotation Xrotation Yrotation
                    End Site
                    {
                        OFFSET -0.000000 0.000000 4.148795
                    }
                }
            }
        }
    }
    JOINT RightUpLeg
    {
        OFFSET -10.371986 0.000000 0.000000
        CHANNELS 3 Zrotation Xrotation Yrotation
        JOINT RightLeg
        {
            OFFSET -0.000000 -42.486427 0.000000
            CHANNELS 3 Zrotation Xrotation Yrotation
            JOINT RightFoot
            {
                OFFSET -0.000000 -48.322342 0.000000
                CHANNELS 3 Zrotation Xrotation Yrotation
                JOINT RightToeBase
                {
                    OFFSET -0.000000 -6.741791 15.557981
                    CHANNELS 3 Zrotation Xrotation Yrotation
                    End Site
                    {
                        OFFSET -0.000000 0.000000 4.148795
                    }
                }
            }
        }
    }
}
MOTION
Frames:    14
Frame Time:    0.008333
20.773651    98.831886    43.925228    1.557412    -2.489469    85.747826    0.448382    -7.969358    -0.606985    3.596292    -3.568964    -0.526135    -0.311999    32.578281    -3.371438    0.498810    0.504713    -3.490715    10.236940    -2.505581    -14.655505    -9.262484    -2.498438    -12.616435    40.691906    -23.003277    -69.362640    44.188408    7.342510    2.302542    -10.762099    7.996541    -12.534262    66.351089    70.156738    17.315796    2.182931    -15.119301    13.635656    21.404476    -14.279344    5.969993    5.714995    6.694561    5.340852    -2.139566    4.790173    5.958325    -3.785393    -7.217436    10.136843    0.000000    0.000000    0.000000    -1.024192    5.908177    5.465994    1.352735    1.905547    -0.739342    3.725200    -3.822419    -14.660552    0.000000    0.000000    0.000000    
20.787970    98.837753    43.906940    1.565286    -2.462607    85.685181    0.488513    -7.948694    -0.625469    3.616581    -3.596241    -0.545888    -0.412542    32.544758    -3.305311    0.392567    0.520016    -3.452770    10.309015    -2.545576    -14.537592    -9.032106    -2.806178    -12.727335    40.575596    -22.241232    -67.343056    43.989803    6.955742    2.429741    -10.793679    7.976252    -12.518697    66.288925    70.214500    17.377111    2.109775    -15.047315    13.653074    21.381479    -14.214437    5.891957    5.662484    6.706114    5.363912    -2.131173    4.812069    5.991684    -3.822253    -7.205274    10.151488    0.000000    0.000000    0.000000    -1.077409    5.910369    5.491310    1.359388    1.912109    -0.694196    3.759434    -3.829595    -14.650890    0.000000    0.000000    0.000000    
20.802935    98.842514    43.888950    1.582150    -2.438492    85.629364    0.555781    -7.935378    -0.633575    3.563476    -3.599797    -0.560150    -0.094632    32.573513    -3.264874    -0.189994    0.412576    -3.439876    10.474243    -2.538929    -14.489918    -8.842917    -3.313913    -12.775476    40.073402    -21.431919    -65.561806    43.710579    6.484056    2.550133    -10.716223    8.032911    -12.493370    65.943977    70.487427    17.660990    1.881507    -15.157367    13.725021    21.409882    -14.307401    5.841379    5.611775    6.728418    5.381772    -2.123009    4.830147    6.027023    -3.853418    -7.201924    10.161052    0.000000    0.000000    0.000000    -1.118195    5.923742    5.490405    1.351474    1.912482    -0.691974    3.789751    -3.817274    -14.595087    0.000000    0.000000    0.000000    
20.814838    98.849060    43.870903    1.599405    -2.412264    85.582367    0.587663    -7.894783    -0.654265    3.598480    -3.662087    -0.579821    -0.244889    32.655582    -3.252584    -0.185934    0.329917    -3.451236    10.508478    -2.627203    -14.427812    -8.698248    -3.595716    -12.879235    39.985138    -20.624403    -62.998802    43.537846    5.964255    2.692584    -10.720725    8.026782    -12.471553    65.835274    70.603394    17.728313    1.789936    -15.153973    13.748778    21.399530    -14.301476    5.801856    5.556367    6.742511    5.390345    -2.102469    4.855565    6.065837    -3.886527    -7.181474    10.162881    0.000000    0.000000    0.000000    -1.195288    5.913274    5.650628    1.415682    1.960904    -0.671257    3.787659    -3.850656    -14.717058    0.000000    0.000000    0.000000    
20.826788    98.856583    43.852699    1.614739    -2.385085    85.531601    0.616729    -7.832684    -0.683521    3.669469    -3.786682    -0.604416    -0.417748    32.782017    -3.116998    -0.205224    0.220821    -3.341758    10.436054    -2.674322    -14.391675    -8.478683    -4.073448    -12.940220    39.291603    -19.767309    -60.764946    43.534496    5.201270    2.595281    -10.778028    8.000209    -12.431466    65.876221    70.608543    17.677103    1.790159    -15.074829    13.709626    21.400928    -14.215569    5.833397    5.500971    6.758624    5.411968    -2.089591    4.876294    6.078594    -3.900313    -7.167737    10.194899    0.000000    0.000000    0.000000    -1.242280    5.920944    5.662317    1.414875    1.969137    -0.653885    3.818471    -3.846641    -14.682451    0.000000    0.000000    0.000000    
20.835566    98.862022    43.835594    1.627446    -2.359084    85.488235    0.656416    -7.797538    -0.697934    3.683966    -3.857998    -0.618595    -0.505315    32.636822    -3.082609    -0.245201    0.537812    -3.324566    10.403906    -2.586277    -14.369820    -8.239974    -4.573802    -13.135078    38.756126    -19.058966    -58.081810    43.506203    4.318636    2.688266    -10.772920    7.978385    -12.416214    65.911507    70.282677    17.608297    2.016748    -14.890329    13.706461    21.111095    -14.079752    5.788229    5.449723    6.769651    5.418396    -2.077801    4.891418    6.138035    -3.940543    -7.157833    10.175051    0.000000    0.000000    0.000000    -1.285442    5.922613    5.665003    1.410506    1.980320    -0.610462    3.858408    -3.844686    -14.674336    0.000000    0.000000    0.000000    
20.846249    98.869133    43.816856    1.643023    -2.326454    85.444557    0.679087    -7.760519    -0.698253    3.698803    -3.946845    -0.616853    -0.551894    32.535160    -3.022587    -0.250987    0.874420    -3.269246    10.497319    -2.747262    -14.425749    -8.212261    -5.184991    -13.287131    37.749821    -18.207628    -55.559105    43.577682    3.346975    2.513709    -10.738290    8.001446    -12.406698    65.820999    70.263412    17.628046    1.976796    -14.813504    13.683792    21.458902    -13.948651    5.957884    5.388964    6.778825    5.438189    -2.062589    4.920809    6.156067    -3.948585    -7.140073    10.193042    0.000000    0.000000    0.000000    -1.336779    5.929916    5.685414    1.411543    1.992219    -0.598597    3.875828    -3.848331    -14.654485    0.000000    0.000000    0.000000    
20.859077    98.877365    43.800228    1.669253    -2.303061    85.406761    0.704071    -7.718300    -0.704533    3.733099    -4.032523    -0.620550    -0.541837    32.796165    -2.967049    -0.319691    0.517394    -3.221471    10.501528    -2.839393    -14.488251    -8.041509    -5.914319    -13.487428    36.373787    -17.454182    -53.110508    43.848473    2.157981    2.239821    -10.735949    8.005244    -12.410874    65.748703    70.267784    17.649523    1.955736    -14.759911    13.667180    21.651339    -13.869000    6.028001    5.337900    6.807755    5.450917    -2.048558    4.934605    6.203177    -4.001215    -7.120759    10.183755    0.000000    0.000000    0.000000    -1.380814    5.952047    5.726569    1.416118    1.997449    -0.604025    3.894302    -3.835307    -14.647924    0.000000    0.000000    0.000000    
20.870003    98.883942    43.783978    1.691956    -2.277125    85.373810    0.724579    -7.681740    -0.710635    3.764365    -4.107890    -0.624195    -0.500228    32.790993    -2.915846    -0.465001    0.662841    -3.180850    10.510768    -2.931124    -14.545535    -7.839425    -6.861262    -13.730083    34.852657    -16.513992    -50.767979    43.989857    1.315673    2.148998    -10.732111    7.990185    -12.410810    65.665901    70.584564    17.661392    1.817704    -14.979724    13.707932    21.535412    -14.077563    6.043363    5.288336    6.834154    5.465992    -2.041208    4.937597    6.233962    -4.016085    -7.093705    10.188080    0.000000    0.000000    0.000000    -1.425656    5.973884    5.763965    1.421878    1.998446    -0.588421    3.921631    -3.836978    -14.664517    0.000000    0.000000    0.000000    
20.862951    98.892365    43.749565    1.674277    -2.209672    85.273651    0.724212    -7.664564    -0.676558    3.803406    -4.203781    -0.585366    -0.605363    32.926788    -2.825374    -0.383872    0.571191    -3.094013    10.541999    -2.984828    -14.602656    -7.648478    -8.113790    -14.044890    32.999031    -15.460850    -48.476383    44.601849    0.611046    2.169101    -10.738453    7.963688    -12.412646    65.685722    70.634247    17.570993    1.791808    -15.087328    13.723993    21.537416    -14.187794    6.015924    5.167890    6.808886    5.539038    -2.003268    4.957275    6.267207    -4.059769    -7.053849    10.189129    0.000000    0.000000    0.000000    -1.534246    5.902027    5.805124    1.443106    2.048734    -0.546999    3.914876    -3.844108    -14.631584    0.000000    0.000000    0.000000    
20.877861    98.896873    43.734192    1.705027    -2.199828    85.248222    0.756312    -7.639323    -0.686023    3.832086    -4.251332    -0.594229    -0.504787    32.955864    -2.771626    -0.620439    0.634181    -3.053830    10.567105    -3.133414    -14.698430    -7.497550    -9.236895    -14.266321    31.219751    -14.580083    -46.249432    45.360836    -0.144686    2.051519    -10.726034    7.952821    -12.406918    65.650673    70.643570    17.545961    1.754562    -15.001019    13.706808    21.718431    -14.084201    6.030772    5.134981    6.846235    5.556667    -1.994285    4.964973    6.310163    -4.094852    -7.046551    10.165490    0.000000    0.000000    0.000000    -1.558447    5.931749    5.817506    1.439361    2.057843    -0.532211    3.942260    -3.846482    -14.632935    0.000000    0.000000    0.000000    
20.907883    98.906006    43.734932    1.764756    -2.205322    85.311378    0.759260    -7.599884    -0.741095    3.884479    -4.306131    -0.645500    -0.902075    32.886124    -2.725576    -0.105917    0.906068    -3.000436    10.545371    -3.332529    -14.851552    -7.539568    -9.772979    -14.433182    30.460613    -14.399307    -43.545341    45.288639    -1.069455    2.331184    -10.695110    7.937787    -12.387671    65.748077    70.240456    17.382790    1.950723    -14.728190    13.660922    21.733362    -13.844514    5.961616    5.147286    6.907177    5.503004    -2.000855    4.973150    6.299946    -4.112060    -7.022596    10.162695    0.000000    0.000000    0.000000    -1.545318    6.043421    5.806408    1.422236    2.010749    -0.573868    3.983268    -3.817109    -14.638002    0.000000    0.000000    0.000000    
20.901920    98.925385    43.706905    1.711951    -2.183134    85.301270    0.783491    -7.631711    -0.745915    3.921906    -4.401518    -0.647436    -0.929393    32.979485    -2.715566    -0.113041    0.906168    -2.996431    10.530850    -3.454238    -15.000404    -7.549376    -10.725372    -14.611135    29.365179    -13.881959    -41.298824    45.481377    -1.598918    2.547808    -10.660273    7.927190    -12.391242    65.711411    70.237839    17.317417    1.924843    -14.704838    13.649050    21.836123    -13.818371    5.930252    5.093131    6.827940    5.498812    -1.972526    5.001775    6.340036    -4.172623    -6.979938    10.160326    0.000000    0.000000    0.000000    -1.583424    5.968638    5.797400    1.430925    2.025465    -0.645779    4.044863    -3.767907    -14.562506    0.000000    0.000000    0.000000    
20.910696    98.935303    43.687336    1.718719    -2.159083    85.297951    0.794419    -7.609724    -0.767588    3.953464    -4.506594    -0.664771    -0.673553    33.300171    -2.716002    -0.520556    0.556324    -3.013048    10.511066    -3.559213    -15.142269    -7.631471    -11.619162    -14.729080    28.486042    -13.497048    -39.315483    45.789165    -2.033579    2.770018    -10.556124    7.989628    -12.380936    65.423035    70.191360    17.473911    1.911738    -14.672640    13.625143    21.918631    -13.780540    5.926449    5.050486    6.837462    5.512341    -1.962766    4.997138    6.341707    -4.196838    -6.942339    10.147762    0.000000    0.000000    0.000000    -1.620641    5.966784    5.795713    1.431799    2.044361    -0.617252    4.082556    -3.766975    -14.587262    0.000000    0.000000    0.000000    
